<?xml version="1.0" encoding="utf-8"?>
<!-- Generator: Adobe Illustrator 16.0.0, SVG Export Plug-In . SVG Version: 6.00 Build 0)  -->
<!DOCTYPE svg PUBLIC "-//W3C//DTD SVG 1.1//EN" "http://www.w3.org/Graphics/SVG/1.1/DTD/svg11.dtd">
<svg version="1.1" id="Layer_1" focusable="false" xmlns="http://www.w3.org/2000/svg" xmlns:xlink="http://www.w3.org/1999/xlink"
	 x="0px" y="0px" width="10px" height="10px" viewBox="0 0 10 10" enable-background="new 0 0 10 10" xml:space="preserve">
<path d="M1.511,6.039l0.32,0.321l2.324-2.317L3.834,3.721C3.657,3.543,3.657,3.256,3.835,3.078l0.769-0.766
	c0.178-0.177,0.465-0.177,0.643,0.001l1.796,1.802c0.178,0.178,0.18,0.466,0,0.643L3.628,8.161L3.95,8.484
	C4.126,8.663,4.125,8.95,3.949,9.127l-0.77,0.767c-0.178,0.178-0.464,0.177-0.642-0.001L0.098,7.447
	C-0.08,7.271-0.079,6.982,0.099,6.805l0.77-0.767C1.045,5.861,1.333,5.86,1.511,6.039z M9.557,0.455
	c-0.639-0.64-1.675-0.641-2.314-0.004C6.602,1.09,6.6,2.125,7.237,2.766c0.64,0.639,1.676,0.641,2.316,0.003
	C10.193,2.131,10.194,1.095,9.557,0.455z"/>
</svg>
